<svg width="81" height="65" viewBox="0 0 81 65" fill="none" xmlns="http://www.w3.org/2000/svg">
<path fill-rule="evenodd" clip-rule="evenodd" d="M40.4353 0L0 14.3313V39.085L40.4353 24.7537L80.872 39.085V14.3313L40.4353 0Z" fill="white"/>
<path d="M3.72305 55.0403L0 64.238H1.9487L2.74267 62.1889H6.4161L7.21006 64.238H9.20838L5.48533 55.0403H3.72305ZM3.42397 60.4116L4.57871 57.4507L5.73345 60.4116H3.42397Z" fill="white"/>
<path fill-rule="evenodd" clip-rule="evenodd" d="M21.5189 60.7019L17.3571 55.0403H15.5547V64.238H17.4833V58.3888L21.7864 64.238H23.4476V55.0403H21.5189V60.7019Z" fill="white"/>
<path d="M33.6353 55.0403L29.9131 64.238H31.8621L32.6562 62.1889H36.3288L37.1242 64.238H39.1215L35.3992 55.0403H33.6353ZM33.3389 60.4116L34.4911 57.4507L35.646 60.4116H33.3389Z" fill="white"/>
<path d="M47.612 55.0403H44.2715V64.238H47.612C50.3043 64.238 52.1644 62.2267 52.1644 59.637C52.1644 57.0248 50.3043 55.0403 47.612 55.0403ZM47.612 62.41H46.1541V56.8654H47.612C49.1546 56.8654 50.1945 58.0093 50.1945 59.637C50.1945 61.2929 49.1546 62.41 47.612 62.41Z" fill="white"/>
<path fill-rule="evenodd" clip-rule="evenodd" d="M60.5183 60.5059H64.5885V58.7075H60.5183V56.8415H65.1446V55.0403H58.6299V64.238H65.2073V62.4382H60.5183V60.5059Z" fill="white"/>
<path d="M77.2771 55.0403H75.516L71.791 64.238H73.7387L74.5354 62.1889H78.2067L79.0035 64.238H80.9994L77.2771 55.0403ZM75.2168 60.4116L76.3691 57.4507L77.5226 60.4116H75.2168Z" fill="white"/>
</svg>
